<?xml version="1.0" standalone="no"?>
<!DOCTYPE svg PUBLIC "-//W3C//DTD SVG 20010904//EN"
 "http://www.w3.org/TR/2001/REC-SVG-20010904/DTD/svg10.dtd">
<svg version="1.0" xmlns="http://www.w3.org/2000/svg"
 width="512.000000pt" height="512.000000pt" viewBox="0 0 512.000000 512.000000"
 preserveAspectRatio="xMidYMid meet">
<metadata>
Created by potrace 1.11, written by Peter Selinger 2001-2013
</metadata>
<g transform="translate(0.000000,512.000000) scale(0.100000,-0.100000)"
fill="#000000" stroke="none">
<path d="M480 4630 c3 -143 1 -160 -15 -160 -9 0 -15 -10 -16 -22 0 -13 -1
-121 -2 -240 -2 -199 -1 -217 16 -222 12 -3 17 -14 17 -38 3 -234 1 -429 -5
-438 -3 -5 -11 -8 -16 -5 -11 7 -10 16 -12 -203 -2 -158 -1 -172 16 -172 19 0
18 13 18 -248 0 -144 2 -164 17 -170 24 -10 26 -32 3 -32 -19 0 -19 -10 -19
-275 -1 -252 1 -275 17 -275 14 0 16 -13 16 -102 0 -85 -3 -103 -15 -103 -11
0 -15 -14 -17 -55 -1 -30 -2 -61 -2 -67 -1 -7 -8 -13 -16 -13 -18 0 -16 30
-18 -324 -2 -268 -1 -290 16 -294 14 -3 17 -16 18 -68 0 -35 1 -81 1 -101 1
-25 7 -40 17 -44 12 -5 16 -21 16 -70 0 -50 3 -64 15 -64 11 0 16 -14 18 -52
3 -46 1 -53 -15 -53 -16 0 -19 -9 -18 -67 0 -54 -3 -68 -15 -68 -10 0 -16 -12
-18 -37 -3 -30 0 -37 11 -32 17 6 28 -16 22 -46 -3 -14 1 -20 16 -20 13 0 19
-7 19 -21 0 -18 6 -20 48 -19 123 4 164 0 158 -15 -4 -12 4 -15 39 -16 125 -3
135 -1 135 19 0 15 13 17 147 15 82 -1 152 -2 156 -3 5 0 6 -4 2 -9 -10 -17
13 -21 132 -22 175 -1 174 -1 180 19 3 14 12 17 39 14 24 -3 34 -9 30 -18 -6
-15 15 -20 66 -16 24 3 38 9 38 18 0 8 10 14 23 15 105 3 112 4 112 19 0 10
11 15 35 15 24 0 35 -5 35 -15 0 -12 19 -15 103 -17 93 -1 102 0 102 17 0 17
8 19 70 17 59 -1 70 -4 70 -19 0 -15 11 -17 93 -17 141 1 147 1 147 -16 0 -12
13 -15 55 -15 44 0 53 3 49 15 -6 15 32 20 109 15 21 -1 27 3 27 18 0 17 9 19
139 19 120 0 138 -2 137 -16 -1 -14 21 -16 172 -18 161 -2 172 -1 172 16 0 17
11 19 148 18 132 -1 148 -2 161 -19 8 -13 24 -19 45 -18 71 4 95 0 90 -14 -4
-11 8 -15 50 -18 51 -3 56 -1 56 17 0 18 5 20 34 17 21 -2 36 -10 38 -20 2
-11 15 -15 46 -14 23 0 60 1 82 1 29 1 40 5 40 16 0 11 12 15 48 16 79 2 87 3
87 19 0 8 8 16 18 18 12 2 17 -3 17 -17 0 -15 6 -21 21 -21 11 0 18 -4 14 -9
-3 -6 2 -14 12 -19 21 -11 67 3 58 18 -4 6 6 10 22 11 15 0 71 1 123 2 l95 2
-3 32 c-3 27 0 33 16 33 19 0 20 7 20 170 0 152 -2 170 -17 175 -16 5 -18 23
-18 183 0 165 6 210 27 197 5 -3 8 320 7 717 -2 656 -3 723 -18 722 -14 -1
-16 19 -17 170 0 221 0 216 -14 213 -15 -3 -24 35 -20 89 3 29 9 44 18 44 17
0 16 -48 16 588 1 479 2 512 18 512 16 0 18 16 18 190 0 184 -1 190 -20 190
-14 0 -18 5 -14 15 5 15 0 17 -49 17 -49 0 -55 -2 -55 -19 0 -16 -9 -18 -85
-15 -65 3 -85 7 -85 18 0 17 56 15 -495 17 -407 2 -470 4 -470 17 0 23 -62 24
-68 1 -7 -27 -103 -25 -101 2 2 16 -11 17 -155 15 -131 -3 -156 -5 -156 -18 0
-12 -19 -15 -102 -16 -94 -1 -103 0 -103 17 0 15 -7 18 -35 17 -26 -1 -35 -6
-35 -18 0 -14 -9 -16 -47 -15 -63 2 -63 2 -57 20 5 13 -7 15 -82 13 -77 -3
-89 -5 -86 -20 2 -13 -4 -16 -30 -14 -47 4 -48 5 -42 19 4 10 -8 14 -46 16
-43 1 -53 -2 -57 -17 -4 -17 -17 -19 -141 -19 -183 -1 -175 0 -168 -18 6 -16
9 -16 -159 -16 -184 0 -185 0 -185 16 0 17 -1 17 -82 18 -31 0 -57 3 -56 6 3
28 -7 30 -118 30 -102 -1 -117 -3 -121 -18 -4 -17 -28 -18 -329 -18 -311 0
-324 1 -324 19 0 15 -7 18 -36 16 l-35 -2 1 -76z"/>
</g>
</svg>
